<mxfile host="www.draw.io" modified="2020-03-02T07:56:23.698Z" agent="Mozilla/5.0 (X11; Linux x86_64) AppleWebKit/537.36 (KHTML, like Gecko) Chrome/76.0.3809.87 Safari/537.36" etag="MdK5slZHcQ2MVqA6xkKf" version="12.7.9" type="github">
  <diagram id="4pAhSj-pU64MSRMXgcWo" name="Page-1">
    <mxGraphModel dx="868" dy="498" grid="1" gridSize="10" guides="1" tooltips="1" connect="1" arrows="1" fold="1" page="1" pageScale="1" pageWidth="827" pageHeight="1169" math="0" shadow="0">
      <root>
        <mxCell id="0" />
        <mxCell id="1" parent="0" />
        <mxCell id="eYZ2IZdChfa33apYGblL-1" value="raging-server" style="rounded=1;whiteSpace=wrap;html=1;align=left;verticalAlign=top;" vertex="1" parent="1">
          <mxGeometry x="170" y="270" width="200" height="90" as="geometry" />
        </mxCell>
        <mxCell id="eYZ2IZdChfa33apYGblL-6" style="edgeStyle=orthogonalEdgeStyle;rounded=0;orthogonalLoop=1;jettySize=auto;html=1;exitX=1;exitY=0.5;exitDx=0;exitDy=0;entryX=0;entryY=0.5;entryDx=0;entryDy=0;" edge="1" parent="1" source="eYZ2IZdChfa33apYGblL-2" target="eYZ2IZdChfa33apYGblL-4">
          <mxGeometry relative="1" as="geometry" />
        </mxCell>
        <mxCell id="eYZ2IZdChfa33apYGblL-7" style="edgeStyle=orthogonalEdgeStyle;rounded=0;orthogonalLoop=1;jettySize=auto;html=1;exitX=1;exitY=0.5;exitDx=0;exitDy=0;" edge="1" parent="1" source="eYZ2IZdChfa33apYGblL-2" target="eYZ2IZdChfa33apYGblL-5">
          <mxGeometry relative="1" as="geometry" />
        </mxCell>
        <mxCell id="eYZ2IZdChfa33apYGblL-2" value="strategy-controller" style="rounded=1;whiteSpace=wrap;html=1;align=center;" vertex="1" parent="1">
          <mxGeometry x="215" y="310" width="110" height="40" as="geometry" />
        </mxCell>
        <mxCell id="eYZ2IZdChfa33apYGblL-16" style="edgeStyle=orthogonalEdgeStyle;rounded=0;orthogonalLoop=1;jettySize=auto;html=1;exitX=1;exitY=0.5;exitDx=0;exitDy=0;" edge="1" parent="1" source="eYZ2IZdChfa33apYGblL-4">
          <mxGeometry relative="1" as="geometry">
            <mxPoint x="620" y="20" as="targetPoint" />
          </mxGeometry>
        </mxCell>
        <mxCell id="eYZ2IZdChfa33apYGblL-17" style="edgeStyle=orthogonalEdgeStyle;rounded=0;orthogonalLoop=1;jettySize=auto;html=1;exitX=1;exitY=0.5;exitDx=0;exitDy=0;" edge="1" parent="1" source="eYZ2IZdChfa33apYGblL-4">
          <mxGeometry relative="1" as="geometry">
            <mxPoint x="760" y="300" as="targetPoint" />
            <Array as="points">
              <mxPoint x="620" y="190" />
              <mxPoint x="620" y="300" />
            </Array>
          </mxGeometry>
        </mxCell>
        <mxCell id="eYZ2IZdChfa33apYGblL-4" value="strategy-agent" style="ellipse;whiteSpace=wrap;html=1;aspect=fixed;align=center;" vertex="1" parent="1">
          <mxGeometry x="500" y="150" width="80" height="80" as="geometry" />
        </mxCell>
        <mxCell id="eYZ2IZdChfa33apYGblL-5" value="strategy-agent" style="ellipse;whiteSpace=wrap;html=1;aspect=fixed;align=center;" vertex="1" parent="1">
          <mxGeometry x="500" y="290" width="80" height="80" as="geometry" />
        </mxCell>
        <mxCell id="eYZ2IZdChfa33apYGblL-8" value="check-harbor-images" style="ellipse;shape=cloud;whiteSpace=wrap;html=1;align=center;" vertex="1" parent="1">
          <mxGeometry x="640" y="30" width="140" height="70" as="geometry" />
        </mxCell>
        <mxCell id="eYZ2IZdChfa33apYGblL-11" value="read gitea repo" style="shape=document;whiteSpace=wrap;html=1;boundedLbl=1;align=center;" vertex="1" parent="1">
          <mxGeometry x="660" y="110" width="120" height="50" as="geometry" />
        </mxCell>
        <mxCell id="eYZ2IZdChfa33apYGblL-14" value="cluster" style="group" vertex="1" connectable="0" parent="1">
          <mxGeometry x="687.5" y="180" width="65" height="83" as="geometry" />
        </mxCell>
        <mxCell id="eYZ2IZdChfa33apYGblL-13" value="" style="shape=cylinder;whiteSpace=wrap;html=1;boundedLbl=1;backgroundOutline=1;align=center;" vertex="1" parent="eYZ2IZdChfa33apYGblL-14">
          <mxGeometry x="5" y="3" width="60" height="80" as="geometry" />
        </mxCell>
        <mxCell id="eYZ2IZdChfa33apYGblL-12" value="deployment&lt;br&gt;rancher" style="shape=cylinder;whiteSpace=wrap;html=1;boundedLbl=1;backgroundOutline=1;align=center;" vertex="1" parent="eYZ2IZdChfa33apYGblL-14">
          <mxGeometry width="60" height="80" as="geometry" />
        </mxCell>
      </root>
    </mxGraphModel>
  </diagram>
</mxfile>
